<svg width="100" height="100" viewBox="0 0 100 100" fill="none" xmlns="http://www.w3.org/2000/svg">
  <!-- Target Background -->
  <circle cx="50" cy="50" r="45" stroke="url(#targetGrad)" stroke-width="6" fill="#121318"/>
  <circle cx="50" cy="50" r="30" stroke="url(#targetGrad)" stroke-width="4" stroke-opacity="0.7"/>
  <circle cx="50" cy="50" r="15" fill="url(#targetGrad)" />
  
  <!-- Crossed Axes -->
  <g transform="rotate(45 50 50)">
    <rect x="46" y="20" width="8" height="60" rx="4" fill="#EAECEF" />
    <path d="M42 20 Q 30 15 30 30 Q 30 45 42 40 L 58 40 Q 70 45 70 30 Q 70 15 58 20 Z" fill="url(#axeGrad)" />
  </g>
  <g transform="rotate(-45 50 50)">
    <rect x="46" y="20" width="8" height="60" rx="4" fill="#EAECEF" />
    <path d="M42 20 Q 30 15 30 30 Q 30 45 42 40 L 58 40 Q 70 45 70 30 Q 70 15 58 20 Z" fill="url(#axeGrad)" />
  </g>
  
  <defs>
    <linearGradient id="axeGrad" x1="0" y1="0" x2="1" y2="1">
      <stop offset="0%" stop-color="#FF5E00" />
      <stop offset="100%" stop-color="#FF8C32" />
    </linearGradient>
    <linearGradient id="targetGrad" x1="0" y1="0" x2="1" y2="1">
      <stop offset="0%" stop-color="#FF5E00" />
      <stop offset="100%" stop-color="#FFD600" />
    </linearGradient>
  </defs>
</svg>
